<?xml version="1.0" encoding="UTF-8"?>
<svg id="Layer_1" data-name="Layer 1" xmlns="http://www.w3.org/2000/svg" xmlns:xlink="http://www.w3.org/1999/xlink" viewBox="0 0 841.89 1190.55">
  <defs>
    <style>
      .cls-1, .cls-2 {
        fill: none;
      }

      .cls-2 {
        stroke-width: 1.53px;
      }

      .cls-2, .cls-3 {
        stroke: #fff;
        stroke-miterlimit: 10;
      }

      .cls-4 {
        clip-path: url(#clippath);
      }

      .cls-5 {
        fill: #fff;
      }

      .cls-6 {
        fill: #97d8e7;
      }

      .cls-7, .cls-3 {
        fill: #273c8a;
      }

      .cls-3 {
        stroke-width: 9px;
      }
    </style>
    <clipPath id="clippath">
      <rect class="cls-1" x="138.84" y="507.05" width="435.66" height="154.28"/>
    </clipPath>
  </defs>
  <g>
    <path class="cls-7" d="m641.05,541.32s68.41-.32,84.17,7.25,30.89,78.18,30.89,78.18c0,0,6.31,41.3,1.26,76.92l-19.86,15.13s-7.88-36.25-47.29-35.31c-39.41.95-42.87,35.31-42.87,35.31h-29.95s-6.31-36.25-43.82-34.99c-37.52,1.26-45.4,34.99-45.4,34.99h-17.97v-35.66l131.53.85-.7-142.68Z"/>
    <rect class="cls-7" x="92.23" y="495.57" width="528.88" height="170.08"/>
    <path class="cls-5" d="m664.03,560.23h43.48s17.78-3.47,26.24,40.35,4.96,36.88,4.96,36.88l-74.67-.63v-76.61Z"/>
    <polygon class="cls-7" points="131.47 718.81 92.23 700.79 92.23 683.56 304.91 683.56 495.76 683.56 495.76 718.81 349.01 718.81 131.47 718.81"/>
    <circle class="cls-3" cx="182.68" cy="732" r="39.65"/>
    <circle class="cls-3" cx="303.39" cy="732" r="39.65"/>
    <circle class="cls-3" cx="573.62" cy="727.32" r="39.65"/>
    <circle class="cls-3" cx="691.56" cy="727.32" r="39.65"/>
  </g>
  <g class="cls-4">
    <g>
      <g>
        <path class="cls-6" d="m222.8,514.05s10.47-.05,12.88,1.11,4.73,11.96,4.73,11.96c0,0,.96,6.32.19,11.77l-3.04,2.32s-1.21-5.55-7.23-5.4-6.56,5.4-6.56,5.4h-4.58s-.96-5.55-6.7-5.35-6.95,5.35-6.95,5.35h-2.75v-5.45l20.12.13-.11-21.83Z"/>
        <rect class="cls-6" x="138.84" y="507.05" width="80.91" height="26.02"/>
        <path class="cls-5" d="m226.32,516.94h6.65s2.72-.53,4.01,6.17c1.29,6.7.76,5.64.76,5.64l-11.42-.1v-11.72Z"/>
        <polygon class="cls-6" points="144.84 541.2 138.84 538.45 138.84 535.81 171.38 535.81 200.58 535.81 200.58 541.2 178.12 541.2 144.84 541.2"/>
        <g>
          <circle class="cls-6" cx="152.68" cy="543.22" r="6.07"/>
          <circle class="cls-2" cx="152.68" cy="543.22" r="6.07"/>
        </g>
        <g>
          <circle class="cls-6" cx="171.15" cy="543.22" r="6.07"/>
          <circle class="cls-2" cx="171.15" cy="543.22" r="6.07"/>
        </g>
        <g>
          <circle class="cls-6" cx="212.49" cy="542.51" r="6.07"/>
          <circle class="cls-2" cx="212.49" cy="542.51" r="6.07"/>
        </g>
        <g>
          <circle class="cls-6" cx="230.53" cy="542.51" r="6.07"/>
          <circle class="cls-2" cx="230.53" cy="542.51" r="6.07"/>
        </g>
      </g>
      <g>
        <path class="cls-6" d="m334,514.05s10.47-.05,12.88,1.11,4.73,11.96,4.73,11.96c0,0,.96,6.32.19,11.77l-3.04,2.32s-1.21-5.55-7.23-5.4-6.56,5.4-6.56,5.4h-4.58s-.96-5.55-6.7-5.35-6.95,5.35-6.95,5.35h-2.75v-5.45l20.12.13-.11-21.83Z"/>
        <rect class="cls-6" x="250.04" y="507.05" width="80.91" height="26.02"/>
        <path class="cls-5" d="m337.52,516.94h6.65s2.72-.53,4.01,6.17c1.29,6.7.76,5.64.76,5.64l-11.42-.1v-11.72Z"/>
        <polygon class="cls-6" points="256.04 541.2 250.04 538.45 250.04 535.81 282.58 535.81 311.78 535.81 311.78 541.2 289.32 541.2 256.04 541.2"/>
        <g>
          <circle class="cls-6" cx="263.88" cy="543.22" r="6.07"/>
          <circle class="cls-2" cx="263.88" cy="543.22" r="6.07"/>
        </g>
        <g>
          <circle class="cls-6" cx="282.34" cy="543.22" r="6.07"/>
          <circle class="cls-2" cx="282.34" cy="543.22" r="6.07"/>
        </g>
        <g>
          <circle class="cls-6" cx="323.69" cy="542.51" r="6.07"/>
          <circle class="cls-2" cx="323.69" cy="542.51" r="6.07"/>
        </g>
        <g>
          <circle class="cls-6" cx="341.73" cy="542.51" r="6.07"/>
          <circle class="cls-2" cx="341.73" cy="542.51" r="6.07"/>
        </g>
      </g>
      <g>
        <path class="cls-6" d="m445.2,514.05s10.47-.05,12.88,1.11,4.73,11.96,4.73,11.96c0,0,.96,6.32.19,11.77l-3.04,2.32s-1.21-5.55-7.23-5.4-6.56,5.4-6.56,5.4h-4.58s-.96-5.55-6.7-5.35-6.95,5.35-6.95,5.35h-2.75v-5.45l20.12.13-.11-21.83Z"/>
        <rect class="cls-6" x="361.24" y="507.05" width="80.91" height="26.02"/>
        <path class="cls-5" d="m448.72,516.94h6.65s2.72-.53,4.01,6.17c1.29,6.7.76,5.64.76,5.64l-11.42-.1v-11.72Z"/>
        <polygon class="cls-6" points="367.24 541.2 361.24 538.45 361.24 535.81 393.78 535.81 422.97 535.81 422.97 541.2 400.52 541.2 367.24 541.2"/>
        <g>
          <circle class="cls-6" cx="375.08" cy="543.22" r="6.07"/>
          <circle class="cls-2" cx="375.08" cy="543.22" r="6.07"/>
        </g>
        <g>
          <circle class="cls-6" cx="393.54" cy="543.22" r="6.07"/>
          <circle class="cls-2" cx="393.54" cy="543.22" r="6.07"/>
        </g>
        <g>
          <circle class="cls-6" cx="434.89" cy="542.51" r="6.07"/>
          <circle class="cls-2" cx="434.89" cy="542.51" r="6.07"/>
        </g>
        <g>
          <circle class="cls-6" cx="452.93" cy="542.51" r="6.07"/>
          <circle class="cls-2" cx="452.93" cy="542.51" r="6.07"/>
        </g>
      </g>
      <g>
        <path class="cls-6" d="m556.4,514.05s10.47-.05,12.88,1.11,4.73,11.96,4.73,11.96c0,0,.96,6.32.19,11.77l-3.04,2.32s-1.21-5.55-7.23-5.4-6.56,5.4-6.56,5.4h-4.58s-.96-5.55-6.7-5.35-6.95,5.35-6.95,5.35h-2.75v-5.45l20.12.13-.11-21.83Z"/>
        <rect class="cls-6" x="472.44" y="507.05" width="80.91" height="26.02"/>
        <path class="cls-5" d="m559.92,516.94h6.65s2.72-.53,4.01,6.17c1.29,6.7.76,5.64.76,5.64l-11.42-.1v-11.72Z"/>
        <polygon class="cls-6" points="478.44 541.2 472.44 538.45 472.44 535.81 504.98 535.81 534.17 535.81 534.17 541.2 511.72 541.2 478.44 541.2"/>
        <g>
          <circle class="cls-6" cx="486.28" cy="543.22" r="6.07"/>
          <circle class="cls-2" cx="486.28" cy="543.22" r="6.07"/>
        </g>
        <g>
          <circle class="cls-6" cx="504.74" cy="543.22" r="6.07"/>
          <circle class="cls-2" cx="504.74" cy="543.22" r="6.07"/>
        </g>
        <g>
          <circle class="cls-6" cx="546.09" cy="542.51" r="6.07"/>
          <circle class="cls-2" cx="546.09" cy="542.51" r="6.07"/>
        </g>
        <g>
          <circle class="cls-6" cx="564.13" cy="542.51" r="6.07"/>
          <circle class="cls-2" cx="564.13" cy="542.51" r="6.07"/>
        </g>
      </g>
      <g>
        <path class="cls-6" d="m222.8,566.19s10.47-.05,12.88,1.11,4.73,11.96,4.73,11.96c0,0,.96,6.32.19,11.77l-3.04,2.32s-1.21-5.55-7.23-5.4-6.56,5.4-6.56,5.4h-4.58s-.96-5.55-6.7-5.35c-5.74.19-6.95,5.35-6.95,5.35h-2.75v-5.45l20.12.13-.11-21.83Z"/>
        <rect class="cls-6" x="138.84" y="559.19" width="80.91" height="26.02"/>
        <path class="cls-5" d="m226.32,569.09h6.65s2.72-.53,4.01,6.17c1.29,6.7.76,5.64.76,5.64l-11.42-.1v-11.72Z"/>
        <polygon class="cls-6" points="144.84 593.35 138.84 590.59 138.84 587.95 171.38 587.95 200.58 587.95 200.58 593.35 178.12 593.35 144.84 593.35"/>
        <g>
          <circle class="cls-6" cx="152.68" cy="595.36" r="6.07"/>
          <circle class="cls-2" cx="152.68" cy="595.36" r="6.07"/>
        </g>
        <g>
          <circle class="cls-6" cx="171.15" cy="595.36" r="6.07"/>
          <circle class="cls-2" cx="171.15" cy="595.36" r="6.07"/>
        </g>
        <g>
          <circle class="cls-6" cx="212.49" cy="594.65" r="6.07"/>
          <circle class="cls-2" cx="212.49" cy="594.65" r="6.07"/>
        </g>
        <g>
          <circle class="cls-6" cx="230.53" cy="594.65" r="6.07"/>
          <circle class="cls-2" cx="230.53" cy="594.65" r="6.07"/>
        </g>
      </g>
      <g>
        <path class="cls-6" d="m334,566.19s10.47-.05,12.88,1.11,4.73,11.96,4.73,11.96c0,0,.96,6.32.19,11.77l-3.04,2.32s-1.21-5.55-7.23-5.4-6.56,5.4-6.56,5.4h-4.58s-.96-5.55-6.7-5.35c-5.74.19-6.95,5.35-6.95,5.35h-2.75v-5.45l20.12.13-.11-21.83Z"/>
        <rect class="cls-6" x="250.04" y="559.19" width="80.91" height="26.02"/>
        <path class="cls-5" d="m337.52,569.09h6.65s2.72-.53,4.01,6.17c1.29,6.7.76,5.64.76,5.64l-11.42-.1v-11.72Z"/>
        <polygon class="cls-6" points="256.04 593.35 250.04 590.59 250.04 587.95 282.58 587.95 311.78 587.95 311.78 593.35 289.32 593.35 256.04 593.35"/>
        <g>
          <circle class="cls-6" cx="263.88" cy="595.36" r="6.07"/>
          <circle class="cls-2" cx="263.88" cy="595.36" r="6.07"/>
        </g>
        <g>
          <circle class="cls-6" cx="282.34" cy="595.36" r="6.07"/>
          <circle class="cls-2" cx="282.34" cy="595.36" r="6.07"/>
        </g>
        <g>
          <circle class="cls-6" cx="323.69" cy="594.65" r="6.07"/>
          <circle class="cls-2" cx="323.69" cy="594.65" r="6.07"/>
        </g>
        <g>
          <circle class="cls-6" cx="341.73" cy="594.65" r="6.07"/>
          <circle class="cls-2" cx="341.73" cy="594.65" r="6.07"/>
        </g>
      </g>
      <g>
        <path class="cls-6" d="m445.2,566.19s10.47-.05,12.88,1.11,4.73,11.96,4.73,11.96c0,0,.96,6.32.19,11.77l-3.04,2.32s-1.21-5.55-7.23-5.4-6.56,5.4-6.56,5.4h-4.58s-.96-5.55-6.7-5.35c-5.74.19-6.95,5.35-6.95,5.35h-2.75v-5.45l20.12.13-.11-21.83Z"/>
        <rect class="cls-6" x="361.24" y="559.19" width="80.91" height="26.02"/>
        <path class="cls-5" d="m448.72,569.09h6.65s2.72-.53,4.01,6.17c1.29,6.7.76,5.64.76,5.64l-11.42-.1v-11.72Z"/>
        <polygon class="cls-6" points="367.24 593.35 361.24 590.59 361.24 587.95 393.78 587.95 422.97 587.95 422.97 593.35 400.52 593.35 367.24 593.35"/>
        <g>
          <circle class="cls-6" cx="375.08" cy="595.36" r="6.07"/>
          <circle class="cls-2" cx="375.08" cy="595.36" r="6.07"/>
        </g>
        <g>
          <circle class="cls-6" cx="393.54" cy="595.36" r="6.07"/>
          <circle class="cls-2" cx="393.54" cy="595.36" r="6.07"/>
        </g>
        <g>
          <circle class="cls-6" cx="434.89" cy="594.65" r="6.07"/>
          <circle class="cls-2" cx="434.89" cy="594.65" r="6.07"/>
        </g>
        <g>
          <circle class="cls-6" cx="452.93" cy="594.65" r="6.07"/>
          <circle class="cls-2" cx="452.93" cy="594.65" r="6.07"/>
        </g>
      </g>
      <g>
        <path class="cls-6" d="m556.4,566.19s10.47-.05,12.88,1.11,4.73,11.96,4.73,11.96c0,0,.96,6.32.19,11.77l-3.04,2.32s-1.21-5.55-7.23-5.4-6.56,5.4-6.56,5.4h-4.58s-.96-5.55-6.7-5.35c-5.74.19-6.95,5.35-6.95,5.35h-2.75v-5.45l20.12.13-.11-21.83Z"/>
        <rect class="cls-6" x="472.44" y="559.19" width="80.91" height="26.02"/>
        <path class="cls-5" d="m559.92,569.09h6.65s2.72-.53,4.01,6.17c1.29,6.7.76,5.64.76,5.64l-11.42-.1v-11.72Z"/>
        <polygon class="cls-6" points="478.44 593.35 472.44 590.59 472.44 587.95 504.98 587.95 534.17 587.95 534.17 593.35 511.72 593.35 478.44 593.35"/>
        <g>
          <circle class="cls-6" cx="486.28" cy="595.36" r="6.07"/>
          <circle class="cls-2" cx="486.28" cy="595.36" r="6.07"/>
        </g>
        <g>
          <circle class="cls-6" cx="504.74" cy="595.36" r="6.07"/>
          <circle class="cls-2" cx="504.74" cy="595.36" r="6.07"/>
        </g>
        <g>
          <circle class="cls-6" cx="546.09" cy="594.65" r="6.07"/>
          <circle class="cls-2" cx="546.09" cy="594.65" r="6.07"/>
        </g>
        <g>
          <circle class="cls-6" cx="564.13" cy="594.65" r="6.07"/>
          <circle class="cls-2" cx="564.13" cy="594.65" r="6.07"/>
        </g>
      </g>
      <g>
        <path class="cls-6" d="m222.8,618.33s10.47-.05,12.88,1.11,4.73,11.96,4.73,11.96c0,0,.96,6.32.19,11.77l-3.04,2.32s-1.21-5.55-7.23-5.4-6.56,5.4-6.56,5.4h-4.58s-.96-5.55-6.7-5.35c-5.74.19-6.95,5.35-6.95,5.35h-2.75v-5.45l20.12.13-.11-21.83Z"/>
        <rect class="cls-6" x="138.84" y="611.34" width="80.91" height="26.02"/>
        <path class="cls-5" d="m226.32,621.23h6.65s2.72-.53,4.01,6.17c1.29,6.7.76,5.64.76,5.64l-11.42-.1v-11.72Z"/>
        <polygon class="cls-6" points="144.84 645.49 138.84 642.73 138.84 640.1 171.38 640.1 200.58 640.1 200.58 645.49 178.12 645.49 144.84 645.49"/>
        <g>
          <circle class="cls-6" cx="152.68" cy="647.51" r="6.07"/>
          <circle class="cls-2" cx="152.68" cy="647.51" r="6.07"/>
        </g>
        <g>
          <circle class="cls-6" cx="171.15" cy="647.51" r="6.07"/>
          <circle class="cls-2" cx="171.15" cy="647.51" r="6.07"/>
        </g>
        <g>
          <circle class="cls-6" cx="212.49" cy="646.79" r="6.07"/>
          <circle class="cls-2" cx="212.49" cy="646.79" r="6.07"/>
        </g>
        <g>
          <circle class="cls-6" cx="230.53" cy="646.79" r="6.07"/>
          <circle class="cls-2" cx="230.53" cy="646.79" r="6.07"/>
        </g>
      </g>
      <g>
        <path class="cls-6" d="m334,618.33s10.47-.05,12.88,1.11,4.73,11.96,4.73,11.96c0,0,.96,6.32.19,11.77l-3.04,2.32s-1.21-5.55-7.23-5.4-6.56,5.4-6.56,5.4h-4.58s-.96-5.55-6.7-5.35c-5.74.19-6.95,5.35-6.95,5.35h-2.75v-5.45l20.12.13-.11-21.83Z"/>
        <rect class="cls-6" x="250.04" y="611.34" width="80.91" height="26.02"/>
        <path class="cls-5" d="m337.52,621.23h6.65s2.72-.53,4.01,6.17c1.29,6.7.76,5.64.76,5.64l-11.42-.1v-11.72Z"/>
        <polygon class="cls-6" points="256.04 645.49 250.04 642.73 250.04 640.1 282.58 640.1 311.78 640.1 311.78 645.49 289.32 645.49 256.04 645.49"/>
        <g>
          <circle class="cls-6" cx="263.88" cy="647.51" r="6.07"/>
          <circle class="cls-2" cx="263.88" cy="647.51" r="6.07"/>
        </g>
        <g>
          <circle class="cls-6" cx="282.34" cy="647.51" r="6.07"/>
          <circle class="cls-2" cx="282.34" cy="647.51" r="6.07"/>
        </g>
        <g>
          <circle class="cls-6" cx="323.69" cy="646.79" r="6.07"/>
          <circle class="cls-2" cx="323.69" cy="646.79" r="6.07"/>
        </g>
        <g>
          <circle class="cls-6" cx="341.73" cy="646.79" r="6.07"/>
          <circle class="cls-2" cx="341.73" cy="646.79" r="6.07"/>
        </g>
      </g>
      <g>
        <path class="cls-6" d="m445.2,618.33s10.47-.05,12.88,1.11,4.73,11.96,4.73,11.96c0,0,.96,6.32.19,11.77l-3.04,2.32s-1.21-5.55-7.23-5.4-6.56,5.4-6.56,5.4h-4.58s-.96-5.55-6.7-5.35c-5.74.19-6.95,5.35-6.95,5.35h-2.75v-5.45l20.12.13-.11-21.83Z"/>
        <rect class="cls-6" x="361.24" y="611.34" width="80.91" height="26.02"/>
        <path class="cls-5" d="m448.72,621.23h6.65s2.72-.53,4.01,6.17c1.29,6.7.76,5.64.76,5.64l-11.42-.1v-11.72Z"/>
        <polygon class="cls-6" points="367.24 645.49 361.24 642.73 361.24 640.1 393.78 640.1 422.97 640.1 422.97 645.49 400.52 645.49 367.24 645.49"/>
        <g>
          <circle class="cls-6" cx="375.08" cy="647.51" r="6.07"/>
          <circle class="cls-2" cx="375.08" cy="647.51" r="6.07"/>
        </g>
        <g>
          <circle class="cls-6" cx="393.54" cy="647.51" r="6.07"/>
          <circle class="cls-2" cx="393.54" cy="647.51" r="6.07"/>
        </g>
        <g>
          <circle class="cls-6" cx="434.89" cy="646.79" r="6.07"/>
          <circle class="cls-2" cx="434.89" cy="646.79" r="6.07"/>
        </g>
        <g>
          <circle class="cls-6" cx="452.93" cy="646.79" r="6.07"/>
          <circle class="cls-2" cx="452.93" cy="646.79" r="6.07"/>
        </g>
      </g>
      <g>
        <path class="cls-6" d="m556.4,618.33s10.47-.05,12.88,1.11,4.73,11.96,4.73,11.96c0,0,.96,6.32.19,11.77l-3.04,2.32s-1.21-5.55-7.23-5.4-6.56,5.4-6.56,5.4h-4.58s-.96-5.55-6.7-5.35c-5.74.19-6.95,5.35-6.95,5.35h-2.75v-5.45l20.12.13-.11-21.83Z"/>
        <rect class="cls-6" x="472.44" y="611.34" width="80.91" height="26.02"/>
        <path class="cls-5" d="m559.92,621.23h6.65s2.72-.53,4.01,6.17c1.29,6.7.76,5.64.76,5.64l-11.42-.1v-11.72Z"/>
        <polygon class="cls-6" points="478.44 645.49 472.44 642.73 472.44 640.1 504.98 640.1 534.17 640.1 534.17 645.49 511.72 645.49 478.44 645.49"/>
        <g>
          <circle class="cls-6" cx="486.28" cy="647.51" r="6.07"/>
          <circle class="cls-2" cx="486.28" cy="647.51" r="6.07"/>
        </g>
        <g>
          <circle class="cls-6" cx="504.74" cy="647.51" r="6.07"/>
          <circle class="cls-2" cx="504.74" cy="647.51" r="6.07"/>
        </g>
        <g>
          <circle class="cls-6" cx="546.09" cy="646.79" r="6.07"/>
          <circle class="cls-2" cx="546.09" cy="646.79" r="6.07"/>
        </g>
        <g>
          <circle class="cls-6" cx="564.13" cy="646.79" r="6.07"/>
          <circle class="cls-2" cx="564.13" cy="646.79" r="6.07"/>
        </g>
      </g>
    </g>
  </g>
</svg>