<?xml version="1.0" encoding="UTF-8"?>
<svg id="Layer_1" data-name="Layer 1" xmlns="http://www.w3.org/2000/svg" viewBox="0 0 841.89 1190.55">
  <defs>
    <style>
      .cls-1 {
        stroke-width: 14px;
      }

      .cls-1, .cls-2 {
        stroke-linecap: round;
      }

      .cls-1, .cls-2, .cls-3 {
        fill: none;
        stroke: #214287;
        stroke-miterlimit: 10;
      }

      .cls-2 {
        stroke-width: 6px;
      }

      .cls-4 {
        fill: #224188;
      }

      .cls-3 {
        stroke-width: 11px;
      }
    </style>
  </defs>
  <path class="cls-3" d="m339.77,565.62c14.26-30.97,32.87-60.29,49.8-89.99,15.87-27.85,30.62-56.59,43.89-85.77,10-21.98,18.09-44.17,27.21-72.22,17.09,41.52,31.56,82.65,50.49,123.36,13.99,30.08,28.48,59.95,44.58,88.97,23.71,42.73,47.94,79.32,44.86,130.88-3.03,50.66-28.68,99.59-73.68,123.78-47.2,25.38-104.27,22-149.16-6.79-45.06-28.89-65.31-77.22-61.12-129.96,2.34-29.36,11.22-56.39,23.14-82.26Z"/>
  <path class="cls-1" d="m335.38,608.87h90.24c.03-3.17,34.95,16.83,69.76,0,0,0,61.33,6.39,80.38,0"/>
  <line class="cls-2" x1="439.25" y1="612.11" x2="439.27" y2="664.98"/>
  <line class="cls-2" x1="453.55" y1="615.69" x2="453.55" y2="647.25"/>
  <line class="cls-2" x1="466.53" y1="620.36" x2="466.53" y2="673.67"/>
  <line class="cls-2" x1="479.97" y1="619.61" x2="480.44" y2="637.8"/>
  <line class="cls-2" x1="453.55" y1="653.74" x2="453.55" y2="726.51"/>
  <line class="cls-2" x1="439.26" y1="673.67" x2="439.26" y2="721.41"/>
  <line class="cls-2" x1="466.53" y1="680.16" x2="466.53" y2="721.41"/>
  <line class="cls-2" x1="480.2" y1="644" x2="480.2" y2="680.16"/>
  <line class="cls-2" x1="480.2" y1="687.57" x2="480.2" y2="718.63"/>
  <path class="cls-2" d="m351.58,647.02s10.66-17.64,27.35-8.47,24.1,5.46,24.1,5.46l4.17-2.54"/>
  <path class="cls-2" d="m339.77,677.68c3.99-5.65,10.26-9.64,17.06-10.86,6.81-1.22,14.07.35,19.77,4.26,2.93,2.01,5.44,4.6,8.45,6.47,5.4,3.36,12.33,4.15,18.35,2.1,6.02-2.05,11.03-6.9,13.26-12.85"/>
  <path class="cls-2" d="m357.33,728.31c4.13-1.68,8.89-.49,12.85,1.55s7.48,4.88,11.5,6.78c7.59,3.58,16.83,3.46,24.33-.32,3.69-1.86,6.92-4.52,10.55-6.48,5.31-2.86,11.89-4.1,17.36-1.58,3.28,1.51,5.85,4.19,8.64,6.48,7.43,6.06,18.61,9.3,26.52,3.88,2.47-1.69,4.41-4.09,6.92-5.72,7.58-4.94,17.67-1.68,25.76,2.37,8.09,4.05,16.86,8.94,25.64,6.76,5.71-1.42,10.24-5.6,14.99-9.08s10.64-6.46,16.33-4.95"/>
  <path class="cls-2" d="m497.97,665.69c6.95-7.31,18.37-9.98,27.84-6.51,4.88,1.79,9.14,5,14.02,6.79,6.7,2.45,14.06,2.05,21.18,1.61,5.42-.33,10.84-.67,16.26-1"/>
  <path class="cls-2" d="m514.41,686.74c.48-4.11,3.74-7.43,7.4-9.35s7.79-2.73,11.75-3.94,7.96-2.96,10.54-6.19"/>
  <path class="cls-4" d="m559.75,574.08c-5.21-7.37-11.23-13.85-17.86-19.2-.25-.2-.62-.16-.82.09-5.45,6.83-11.4,13.06-17.75,18.56-.4.35-.16,1,.37,1.01l35.57.46c.47,0,.76-.53.48-.92Z"/>
  <path class="cls-4" d="m559.75,588.73c-5.21-7.37-11.23-13.85-17.86-19.2-.25-.2-.62-.16-.82.09-5.45,6.83-11.4,13.06-17.75,18.56-.4.35-.16,1,.37,1.01l35.57.46c.47,0,.76-.53.48-.92Z"/>
  <line class="cls-2" x1="541.94" y1="557.68" x2="541.94" y2="607.8"/>
  <path class="cls-4" d="m391.43,577.94c-5.21-7.37-11.23-13.85-17.86-19.2-.25-.2-.62-.16-.82.09-5.45,6.83-11.4,13.06-17.75,18.56-.4.35-.16,1,.37,1.01l35.57.46c.47,0,.76-.53.48-.92Z"/>
  <path class="cls-4" d="m391.43,592.58c-5.21-7.37-11.23-13.85-17.86-19.2-.25-.2-.62-.16-.82.09-5.45,6.83-11.4,13.06-17.75,18.56-.4.35-.16,1,.37,1.01l35.57.46c.47,0,.76-.53.48-.92Z"/>
  <line class="cls-2" x1="373.63" y1="561.53" x2="373.63" y2="611.65"/>
  <path class="cls-4" d="m420.05,582.22c-3.05-4.32-6.57-8.11-10.45-11.24-.15-.12-.36-.09-.48.05-3.19,4-6.67,7.64-10.39,10.86-.24.2-.1.59.22.59l20.82.27c.28,0,.44-.31.28-.54Z"/>
  <path class="cls-4" d="m420.05,590.63c-3.05-4.32-6.57-8.11-10.45-11.24-.15-.12-.36-.09-.48.05-3.19,4-6.67,7.64-10.39,10.86-.24.2-.1.59.22.59l20.82.27c.28,0,.44-.31.28-.54Z"/>
  <line class="cls-2" x1="409.63" y1="575.27" x2="409.63" y2="604.6"/>
  <path class="cls-4" d="m523.27,588.45c-2.25-3.19-4.85-5.99-7.72-8.3-.11-.09-.27-.07-.35.04-2.36,2.95-4.93,5.64-7.67,8.02-.17.15-.07.43.16.44l15.38.2c.2,0,.33-.23.21-.4Z"/>
  <path class="cls-4" d="m523.27,595.15c-2.25-3.19-4.85-5.99-7.72-8.3-.11-.09-.27-.07-.35.04-2.36,2.95-4.93,5.64-7.67,8.02-.17.15-.07.43.16.44l15.38.2c.2,0,.33-.23.21-.4Z"/>
  <line class="cls-2" x1="515.58" y1="583.78" x2="515.58" y2="605.44"/>
  <path class="cls-4" d="m464.26,287.65c4.18-4.36,6.44-10.5,6.08-16.53,1.06,5.41,1.3,12.09,5.54,16.25,4.24,4.16,10.49,6.16,16.35,5.24-5.87,2.15-11.88,4.38-16.63,8.46-4.74,4.08-6.6,10.46-6.69,16.57-1.17-5.6-1.95-12.41-5.9-17.03-5.33-6.23-8.5-5.76-12.74-7.06,7.17-.92,11.86-3.69,13.98-5.9Z"/>
  <path class="cls-4" d="m478.94,270.09c1.5-1.56,2.31-3.77,2.18-5.93.38,1.94.47,4.34,1.99,5.83s3.76,2.21,5.87,1.88c-2.11.77-4.26,1.57-5.97,3.04s-2.37,3.75-2.4,5.94c-.42-2.01-.7-4.45-2.12-6.11-1.91-2.24-3.05-2.07-4.57-2.53,2.57-.33,4.26-1.32,5.02-2.12Z"/>
  <path class="cls-4" d="m491.97,282.33c1.97-2.05,3.03-4.93,2.86-7.77.5,2.55.61,5.68,2.6,7.64s4.93,2.9,7.69,2.46c-2.76,1.01-5.59,2.06-7.81,3.98s-3.1,4.92-3.14,7.79c-.55-2.63-.92-5.83-2.77-8-2.5-2.93-3.99-2.71-5.99-3.32,3.37-.43,5.57-1.73,6.57-2.77Z"/>
</svg>