<?xml version="1.0" encoding="UTF-8"?>
<svg id="Layer_1" data-name="Layer 1" xmlns="http://www.w3.org/2000/svg" viewBox="0 0 841.89 1190.55">
  <defs>
    <style>
      .cls-1 {
        stroke: #1f4486;
        stroke-width: 6px;
      }

      .cls-1, .cls-2, .cls-3 {
        fill: none;
        stroke-miterlimit: 10;
      }

      .cls-4 {
        fill: #fff;
      }

      .cls-5 {
        fill: #1f4486;
      }

      .cls-2 {
        stroke: #fff;
      }

      .cls-3 {
        stroke: #204386;
        stroke-width: 11px;
      }
    </style>
  </defs>
  <polyline class="cls-3" points="224.28 562.54 250.25 612.57 293.67 577.03"/>
  <path class="cls-3" d="m640.49,658.98c-12.95,135.41-175.77,207.6-288.05,149.56-56.48-29.2-103.75-104.32-101.21-172.24"/>
  <path class="cls-3" d="m643.1,625.06c2.23-136.01-151.53-225.9-269.59-180.73-59.38,22.72-114.73,92.11-119.78,159.89"/>
  <polyline class="cls-3" points="672.93 699.58 644.03 651.17 602.79 689.24"/>
  <polygon class="cls-1" points="434.87 523.74 401.23 562.93 496.18 562.92 463.88 523.74 434.87 523.74"/>
  <path class="cls-1" d="m397.81,568.78v39.69c0,6.84,5.55,12.39,12.39,12.39h77.27c6.84,0,12.39-5.55,12.39-12.39v-39.69h-102.06Z"/>
  <path class="cls-1" d="m412.87,679.57c-8.32,0-15.07,6.75-15.07,15.07v32.69c0,8.24,5.55,14.91,12.39,14.91h77.27c6.84,0,12.39-6.68,12.39-14.91v-32.69c0-8.32-6.75-15.07-15.07-15.07h-71.92Z"/>
  <rect class="cls-1" x="400.45" y="620.87" width="97.49" height="29.35" rx="14.68" ry="14.68"/>
  <rect class="cls-1" x="400.61" y="650.22" width="97.49" height="29.35" rx="14.68" ry="14.68"/>
  <rect class="cls-5" x="429.15" y="542.93" width="8.39" height="8.39"/>
  <rect class="cls-5" x="420.76" y="550.72" width="8.39" height="8.39"/>
  <rect class="cls-5" x="461.5" y="617.06" width="8.39" height="8.39"/>
  <rect class="cls-4" x="453.12" y="617.06" width="8.39" height="8.39"/>
  <rect class="cls-4" x="469.89" y="617.06" width="8.39" height="8.39"/>
  <rect class="cls-5" x="461.5" y="646.03" width="8.39" height="8.39"/>
  <rect class="cls-4" x="453.12" y="646.03" width="8.39" height="8.39"/>
  <rect class="cls-4" x="469.89" y="646.03" width="8.39" height="8.39"/>
  <rect class="cls-5" x="461.5" y="675.38" width="8.39" height="8.39"/>
  <rect class="cls-4" x="453.12" y="675.38" width="8.39" height="8.39"/>
  <rect class="cls-4" x="469.89" y="675.38" width="8.39" height="8.39"/>
  <rect class="cls-1" x="433.34" y="500.98" width="32.36" height="15.9"/>
  <line class="cls-2" x1="394.63" y1="566.24" x2="502.41" y2="565.97"/>
</svg>